HIERARCHY
ROOT RootJoint
{
    OFFSET   0.000000   0.000000   0.000000
    CHANNELS 6 Xposition Yposition Zposition Xrotation Yrotation Zrotation
    JOINT lHip
    {
        OFFSET   0.100000  -0.051395   0.000000
        CHANNELS 3 Xrotation Yrotation Zrotation
        JOINT lKnee
        {
            OFFSET   0.000000  -0.410000   0.000000
            CHANNELS 3 Xrotation Yrotation Zrotation
            JOINT lAnkle
            {
                OFFSET   0.000000  -0.390000   0.000000
                CHANNELS 3 Xrotation Yrotation Zrotation
                JOINT lToeJoint
                {
                    OFFSET   0.000000  -0.050000   0.130000
                    CHANNELS 3 Xrotation Yrotation Zrotation
                    End Site
                    {
                        OFFSET   0.010000   0.002000   0.060000
                    }
                }
            }
        }
    }
    JOINT rHip
    {
        OFFSET  -0.100000  -0.051395   0.000000
        CHANNELS 3 Xrotation Yrotation Zrotation
        JOINT rKnee
        {
            OFFSET   0.000000  -0.410000   0.000000
            CHANNELS 3 Xrotation Yrotation Zrotation
            JOINT rAnkle
            {
                OFFSET   0.000000  -0.390000   0.000000
                CHANNELS 3 Xrotation Yrotation Zrotation
                JOINT rToeJoint
                {
                    OFFSET   0.000000  -0.050000   0.130000
                    CHANNELS 3 Xrotation Yrotation Zrotation
                    End Site
                    {
                        OFFSET  -0.010000   0.002000   0.060000
                    }
                }
            }
        }
    }
    JOINT pelvis_lowerback
    {
        OFFSET   0.000000   0.093605   0.000000
        CHANNELS 3 Xrotation Yrotation Zrotation
        JOINT lowerback_torso
        {
            OFFSET   0.000000   0.100000   0.000000
            CHANNELS 3 Xrotation Yrotation Zrotation
            JOINT torso_head
            {
                OFFSET   0.000000   0.282350   0.000000
                CHANNELS 3 Xrotation Yrotation Zrotation
                End Site
                {
                    OFFSET   0.000000   0.192650   0.000000
                }
            }
            JOINT lTorso_Clavicle
            {
                OFFSET   0.001000   0.157500   0.000000
                CHANNELS 3 Xrotation Yrotation Zrotation
                JOINT lShoulder
                {
                    OFFSET   0.117647   0.000000   0.000000
                    CHANNELS 3 Xrotation Yrotation Zrotation
                    JOINT lElbow
                    {
                        OFFSET   0.245000   0.000000   0.000000
                        CHANNELS 3 Xrotation Yrotation Zrotation
                        JOINT lWrist
                        {
                            OFFSET   0.240000   0.000000   0.000000
                            CHANNELS 3 Xrotation Yrotation Zrotation
                            End Site
                            {
                                OFFSET   0.116353  -0.002500   0.000000
                            }
                        }
                    }
                }
            }
            JOINT rTorso_Clavicle
            {
                OFFSET  -0.001000   0.157500   0.000000
                CHANNELS 3 Xrotation Yrotation Zrotation
                JOINT rShoulder
                {
                    OFFSET  -0.117647   0.000000   0.000000
                    CHANNELS 3 Xrotation Yrotation Zrotation
                    JOINT rElbow
                    {
                        OFFSET  -0.245000   0.000000   0.000000
                        CHANNELS 3 Xrotation Yrotation Zrotation
                        JOINT rWrist
                        {
                            OFFSET  -0.240000   0.000000   0.000000
                            CHANNELS 3 Xrotation Yrotation Zrotation
                            End Site
                            {
                                OFFSET  -0.116353  -0.002500   0.000000
                            }
                        }
                    }
                }
            }
        }
    }
}
MOTION
Frames: 15
Frame Time:   0.010000
 -2.417790   0.850296   3.128956  -1.425206  -8.135959  -1.141766  11.922800  13.395369   0.193613  33.200810 -11.462429   5.447788   4.986788  -8.313738   2.832368   0.000000   0.000001   0.000000 -27.828226  -4.395255   8.342777  20.196564  -2.650239  -5.552481   7.667781  -2.106808  -3.651312  -0.000001   0.000009   0.000000   1.680732  -1.134687   0.459031   6.791647  -4.476628   1.955353   6.550726   7.609585  -5.377881   0.044376  -2.012878 -17.684786   9.236545 -31.678941 -47.210196   2.160248 -46.284944  13.222891   7.790186  -2.223991  -1.264970  -1.261051   0.555398  20.838774  19.877978  27.371720  46.930464  -0.596975  20.705074  -3.879697   3.689635   2.397939  -6.367598
 -2.421263   0.851547   3.140763  -1.542721  -7.856134  -1.456179  10.282208  14.085286   1.254188  36.781633 -12.132596   5.964019   7.573775  -8.750738   1.798548   0.000002   0.000001   0.000000 -27.134649  -4.246654   8.690624  20.692657  -3.031142  -5.561984   6.891258  -2.297977  -3.619042   0.000000   0.000012   0.000001   1.701265  -1.108003   0.551335   6.879403  -4.362998   2.325812   6.656589   7.498181  -5.469051   0.050272  -1.907681 -17.664612   9.626659 -31.550845 -47.490496   2.111462 -45.827975  13.071737   7.738732  -2.163115  -1.290711  -1.268103   0.675259  20.798480  20.146971  27.689455  46.920216  -0.565996  19.898050  -3.678840   3.415723   2.253091  -6.067081
 -2.424725   0.854038   3.153048  -1.621697  -7.511306  -1.695167   8.096773  14.154963   2.267269  40.608968 -12.471222   6.427217  10.530808  -8.980515   0.149422   0.000001   0.000004  -0.000002 -26.032144  -4.827483   8.819661  20.665132  -2.927699  -5.571103   5.925050  -2.187976  -3.333735   0.000000   0.000010   0.000000   1.706938  -1.078596   0.631926   6.906077  -4.240218   2.646989   6.708986   7.226812  -5.447763   0.053144  -1.870857 -17.553617   9.868673 -31.516342 -48.024390   2.012848 -44.864746  12.907808   7.597158  -1.968440  -1.350179  -1.267519   0.782198  20.664110  20.418149  28.053879  46.963445  -0.550726  19.367881  -3.543659   3.247604   1.975405  -5.368817
 -2.428187   0.856529   3.165334  -1.699161  -7.166154  -1.933490   5.909920  14.187110   3.282581  44.443821 -12.778853   6.913143  13.482175  -9.293969  -1.486754   0.000000   0.000007  -0.000003 -24.927330  -5.405727   8.960017  20.637627  -2.824252  -5.580172   4.958374  -2.082800  -3.046633   0.000001   0.000008  -0.000001   1.712570  -1.049182   0.712514   6.932055  -4.117291   2.968058   6.761455   6.955462  -5.426237   0.055945  -1.834028 -17.442627  10.110967 -31.483763 -48.558259   1.919669 -43.901325  12.748856   7.455802  -1.773620  -1.409159  -1.266684   0.889135  20.529735  20.689941  28.418479  47.004859  -0.534183  18.837748  -3.408761   3.082909   1.695693  -4.671479
 -2.431649   0.859021   3.177619  -1.775122  -6.820687  -2.171167   3.722693  14.181666   4.298478  48.285689 -13.054052   7.419665  16.426322  -9.690087  -3.106083  -0.000002   0.000010  -0.000005 -23.819985  -5.981164   9.111698  20.610140  -2.720801  -5.589190   3.991244  -1.982479  -2.757814   0.000001   0.000006  -0.000002   1.718161  -1.019759   0.793098   6.957339  -3.994221   3.289022   6.813996   6.684132  -5.404473   0.058674  -1.797193 -17.331641  10.353525 -31.453110 -49.092104   1.831612 -42.937725  12.594554   7.314661  -1.578654  -1.467651  -1.265599   0.996070  20.395354  20.962378  28.783249  47.044444  -0.516377  18.307652  -3.274121   2.921653   1.413999  -3.975042
 -2.435024   0.861616   3.189484  -1.779180  -6.465243  -2.446920   1.359573  13.790452   5.125907  51.692661 -12.818236   7.732136  18.268096  -9.734828  -3.867628  -0.000002   0.000009  -0.000004 -22.641795  -6.641628   9.332969  20.263501  -2.550363  -5.618070   3.280670  -1.852272  -2.621752   0.000001   0.000003  -0.000002   1.710584  -0.973627   0.874361   6.927506  -3.805902   3.609798   6.816731   6.275571  -5.305995   0.059281  -1.800847 -17.218883  10.559324 -31.526301 -49.574704   1.722476 -41.715467  12.381155   6.997293  -1.331275  -1.508448  -1.262635   1.028134  20.318713  21.235247  29.050697  47.012192  -0.508438  18.043487  -3.195129   2.818650   1.144762  -3.229981
 -2.438355   0.864264   3.201140  -1.746250  -6.105051  -2.741917  -1.080247  13.193965   5.836424  54.873491 -12.329180   7.917953  19.561740  -9.582964  -4.209711  -0.000003   0.000006  -0.000002 -21.424959  -7.341050   9.598053  19.757459  -2.346154  -5.655389   2.698433  -1.705999  -2.561381   0.000002   0.000000  -0.000002   1.696372  -0.919160   0.955976   6.869325  -3.585276   3.930632   6.795508   5.798345  -5.169495   0.058891  -1.824746 -17.105237  10.745893 -31.651829 -50.031801   1.609526 -40.363631  12.144002   6.591901  -1.057552  -1.538941  -1.258820   1.022761  20.270944  21.508839  29.269193  46.943520  -0.505751  17.912276  -3.143908   2.746571   0.881581  -2.460655
 -2.441687   0.866913   3.212796  -1.711478  -5.745032  -3.036930  -3.506364  12.568688   6.518554  58.046823 -11.830824   8.075416  20.855719  -9.438753  -4.555034  -0.000004   0.000003  -0.000001 -20.202871  -8.034714   9.878512  19.251621  -2.141623  -5.690897   2.116085  -1.560347  -2.499531   0.000003  -0.000003  -0.000002   1.682083  -0.864714   1.037603   6.809921  -3.364977   4.251616   6.775444   5.321071  -5.033283   0.058547  -1.848646 -16.991590  10.931533 -31.778621 -50.489037   1.505967 -39.011459  11.914878   6.186686  -0.783620  -1.567495  -1.255009   1.017386  20.223175  21.783320  29.487400  46.873503  -0.502943  17.781066  -3.092718   2.678036   0.617455  -1.691707
 -2.444856   0.869483   3.224379  -1.674844  -5.425682  -3.303540  -5.803167  11.935916   7.067502  60.795745 -11.126473   8.147263  21.047059  -9.118846  -4.824351  -0.000004   0.000002   0.000000 -18.985440  -8.553241  10.164837  18.689184  -1.994609  -5.696491   1.580327  -1.454131  -2.437148   0.000003  -0.000005  -0.000002   1.667494  -0.801906   1.106038   6.746550  -3.112349   4.519464   6.737890   4.827828  -4.877323   0.058186  -1.868617 -16.911161  11.134107 -31.907477 -50.855186   1.398903 -37.586424  11.624682   5.693324  -0.517359  -1.572066  -1.253097   0.990044  20.225625  22.047783  29.665261  46.754286  -0.502059  17.716058  -3.059072   2.623252   0.400966  -1.041471
 -2.447700   0.871899   3.235818  -1.636979  -5.187456  -3.513334  -7.858752  11.326695   7.383473  62.703915 -10.024781   8.070814  19.035923  -8.432304  -4.920122  -0.000004   0.000007   0.000001 -17.785643  -8.727817  10.439803  18.013215  -1.963542  -5.645034   1.137930  -1.426044  -2.376011   0.000002  -0.000005  -0.000003   1.652396  -0.722350   1.148082   6.676695  -2.794632   4.681005   6.664669   4.302558  -4.681966   0.057711  -1.880729 -16.897168  11.372016 -32.038797 -51.038663   1.281468 -36.015698  11.208648   5.023294  -0.267086  -1.529954  -1.254891   0.918773  20.328508  22.291151  29.762390  46.538468  -0.505225  17.783449  -3.060463   2.590625   0.281094  -0.628128
 -2.450544   0.874315   3.247257  -1.598253  -4.949369  -3.723207  -9.906598  10.706785   7.676343  64.607465  -8.926199   7.957521  17.029376  -7.742866  -4.991358  -0.000005   0.000012   0.000001 -16.584455  -8.896660  10.718536  17.337231  -1.933083  -5.593215   0.695508  -1.398430  -2.314659   0.000001  -0.000005  -0.000003   1.637240  -0.642805   1.190146   6.605962  -2.477113   4.842892   6.593290   3.777043  -4.487408   0.057239  -1.892842 -16.883175  11.609769 -32.170762 -51.221760   1.180116 -34.444340  10.804498   4.353088  -0.017324  -1.484918  -1.256556   0.847500  20.431386  22.535174  29.858721  46.321968  -0.508391  17.850839  -3.061849   2.558865   0.160989  -0.214857
 -2.453388   0.876731   3.258696  -1.558665  -4.711426  -3.933169 -11.947109  10.077016   7.945944  66.507845  -7.831930   7.807775  15.026832  -7.051383  -5.038115  -0.000005   0.000016   0.000002 -15.381900  -9.059688  11.000920  16.661232  -1.903238  -5.541041   0.253062  -1.371291  -2.253096   0.000000  -0.000005  -0.000004   1.622026  -0.563271   1.232230   6.534347  -2.159795   5.005135   6.523740   3.251290  -4.293615   0.056770  -1.904954 -16.869182  11.847369 -32.303369 -51.404474   1.093797 -32.872443  10.410972   3.682681   0.231895  -1.436964  -1.258093   0.776223  20.534261  22.779851  29.954250  46.104788  -0.511556  17.918229  -3.063233   2.527971   0.040658   0.198346
 -2.455540   0.878485   3.270553  -1.612071  -4.653322  -3.951505 -13.792544   9.833827   7.894782  67.163091  -6.753676   7.748699  13.605652  -6.331496  -5.375541  -0.000006   0.000018   0.000000 -14.246645  -8.896194  11.086436  16.175761  -1.942513  -5.432692  -0.257247  -1.370927  -2.212963  -0.000001  -0.000005  -0.000003   1.622908  -0.484384   1.218005   6.525488  -1.845494   4.944044   6.460434   2.875243  -4.110429   0.058849  -1.846597 -16.960789  12.144591 -32.223935 -51.378257   0.978018 -31.241324   9.796417   2.945078   0.426340  -1.424548  -1.263428   0.759943  20.630684  22.847838  30.053399  45.941356  -0.510923  17.959771  -3.101249   2.562744   0.066533   0.125279
 -2.457692   0.880239   3.282409  -1.665453  -4.595201  -3.969785 -15.636862   9.592387   7.835742  67.818114  -5.676163   7.677357  12.190632  -5.603536  -5.694479  -0.000006   0.000021  -0.000002 -13.112142  -8.731059  11.168619  15.690355  -1.982704  -5.324678  -0.767555  -1.370920  -2.172829  -0.000001  -0.000005  -0.000002   1.623809  -0.405496   1.203778   6.516966  -1.531184   4.883012   6.398351   2.498995  -3.927716   0.061021  -1.788244 -17.052395  12.441511 -32.144387 -51.352551   0.884286 -29.609256   9.195848   2.207409   0.620609  -1.409630  -1.268735   0.743653  20.727105  22.916221  30.152380  45.777624  -0.510260  18.001312  -3.139274   2.597550   0.092364   0.052197
 -2.459844   0.881993   3.294266  -1.718813  -4.537063  -3.988010 -17.480141   9.352944   7.768898  68.473375  -4.599531   7.593782  10.781355  -4.867980  -5.994906  -0.000007   0.000023  -0.000004 -11.978380  -8.564350  11.247444  15.205012  -2.023808  -5.217006  -1.277864  -1.371271  -2.132696  -0.000002  -0.000005  -0.000001   1.624731  -0.326610   1.189551   6.508779  -1.216865   4.822034   6.337486   2.122553  -3.745460   0.063286  -1.729894 -17.144001  12.738130 -32.064728 -51.327353   0.811383 -27.976438   8.607634   1.469659   0.814670  -1.392211  -1.274014   0.727355  20.823525  22.984999  30.251191  45.613591  -0.509569  18.042853  -3.177309   2.632390   0.118150  -0.020901
